                               $$TheAaax9$$
TheAaax9(Mr.Akshay)

screenshots 
http://bayimg.com/eAObEAacp 
http://bayimg.com/eAObgAacP 
http://bayimg.com/EaobHAacp 
http://bayimg.com/EAoBiaACp 
http://bayimg.com/EAobJAacP 
http://bayimg.com/eAObkaAcp



---------------------------
| M O V I E information |
---------------------------
Title................................: Casino Royale
Director.............................: Martin Campbell
Release year.........................: 2006
Language.............................: hindi
Runtime..............................: 144 min 
Genre................................: Action | Adventure | Thriller
Color................................: Color 
IMDb rating..........................: 8.0/10   144,361 votes
Link 1...............................: http://www.imdb.com/title/tt0381061/


General

Complete name                    : Casino Royale hindi.avi

Format                           : AVI

Format/Info                      : Audio Video Interleave

File size                        : 710 MiB

Duration                         : 2h 14mn

Overall bit rate                 : 737 Kbps

Writing application              : MEncoder SVN-r30881(20100311-gcc4.3.3)


Video

Format                           : MPEG-4 Visual

Format profile                   : AdvancedSimple@L5

Format settings, BVOP            : Yes

Format settings, QPel            : No

Format settings, GMC             : No warppoints

Format settings, Matrix          : Default (H.263)

Codec ID                         : XVID

Codec ID/Hint                    : XviD

Duration                         : 2h 14mn

Bit rate                         : 597 Kbps

Width                            : 480 pixels

Height                           : 208 pixels

Display aspect ratio             : 2.35:1

Frame rate                       : 25.000 fps

Resolution                       : 24 bits

Colorimetry                      : 4:2:0

Scan type                        : Progressive

Bits/(Pixel*Frame)               : 0.239

Stream size                      : 575 MiB (81%)


Audio

Format                           : MPEG Audio

Format version                   : Version 1

Format profile                   : Layer 3

Codec ID                         : 55

Codec ID/Hint                    : MP3

Duration                         : 2h 14mn

Bit rate mode                    : Constant

Bit rate                         : 128 Kbps

Channel(s)                       : 2 channels

Sampling rate                    : 44.1 KHz

Resolution                       : 16 bits

Video delay                      : 40ms

Stream size                      : 123 MiB (17%)

Alignment                        : Aligned on interleaves

Interleave, duration             : 26 ms (0.65 video frame)

Interleave, preload duration     : 522 ms


screenshots 
http://bayimg.com/eAObEAacp 
http://bayimg.com/eAObgAacP 
http://bayimg.com/EaobHAacp 
http://bayimg.com/EAoBiaACp 
http://bayimg.com/EAobJAacP 
http://bayimg.com/eAObkaAcp


Please Seed & Post Comment
                          by TheAaax9(Mr.Akshay)
              $$TheAaax9$$                                               